<svg xmlns="http://www.w3.org/2000/svg" xmlns:xlink="http://www.w3.org/1999/xlink" width="660" height="377.462"
            viewBox="0 0 660 377.462" style="height: 100%;width: auto;">
            <defs>
                <linearGradient id="linear-gradient" y1="0.5" x2="1" y2="0.5" gradientUnits="objectBoundingBox">
                    <stop offset="0" stop-color="#f5feff"></stop>
                    <stop offset="1" stop-color="#dcf5f8"></stop>
                </linearGradient>
                <linearGradient id="linear-gradient-2" x1="0.466" y1="1.097" x2="0.71" y2="0.351"
                    gradientUnits="objectBoundingBox">
                    <stop offset="0.008" stop-color="#e1ad78"></stop>
                    <stop offset="1" stop-color="#f3bd80"></stop>
                </linearGradient>
                <linearGradient id="linear-gradient-3" x1="1.127" y1="0.51" x2="0.125" y2="0.51"
                    gradientUnits="objectBoundingBox">
                    <stop offset="0.254" stop-color="#f7d8b5"></stop>
                    <stop offset="1" stop-color="#f3bd80"></stop>
                </linearGradient>
                <linearGradient id="linear-gradient-4" x1="0.582" y1="1.039" x2="0.582" y2="0.019"
                    gradientUnits="objectBoundingBox">
                    <stop offset="0" stop-color="#ed7d2b"></stop>
                    <stop offset="1" stop-color="#f99746"></stop>
                </linearGradient>
                <linearGradient id="linear-gradient-5" x1="1.045" y1="0.481" x2="0.027" y2="0.481"
                    gradientUnits="objectBoundingBox">
                    <stop offset="0" stop-color="#cdd2da"></stop>
                    <stop offset="1" stop-color="#eff4fd"></stop>
                </linearGradient>
                <linearGradient id="linear-gradient-6" x1="1.366" y1="0.627" x2="0.392" y2="0.627"
                    xlink:href="#linear-gradient-5"></linearGradient>
                <linearGradient id="linear-gradient-7" x1="1.137" y1="0.833" x2="0.129" y2="0.833"
                    xlink:href="#linear-gradient-5"></linearGradient>
                <linearGradient id="linear-gradient-8" x1="1.134" y1="0.674" x2="0.137" y2="0.674"
                    xlink:href="#linear-gradient-5"></linearGradient>
                <linearGradient id="linear-gradient-9" x1="-0.041" y1="0.496" x2="0.923" y2="0.496"
                    gradientUnits="objectBoundingBox">
                    <stop offset="0" stop-color="#fff"></stop>
                    <stop offset="1" stop-color="#eff4fd"></stop>
                </linearGradient>
                <linearGradient id="linear-gradient-10" x1="1.188" y1="0.41" x2="0.209" y2="0.41"
                    xlink:href="#linear-gradient-3"></linearGradient>
            </defs>
            <g id="Group_120" data-name="Group 120" transform="translate(-206.479 -205.376)">
                <g id="Group_1" data-name="Group 1" transform="translate(212.118 205.912)">
                    <path id="Path_1" data-name="Path 1"
                        d="M248.365,581s-45.651-69.06,4.067-150.311S368.927,390.3,365.7,295.73,503.7,191.989,553.612,219.411s93.98,11.713,153.595,13.625c96.685,3.1,123.75,98.493,96.944,144.916C766.117,443.818,923.3,451.563,832.821,581Z"
                        transform="translate(-229.229 -205.912)" stroke="#ebf3fa" stroke-miterlimit="10"
                        stroke-width="1" fill="url(#linear-gradient)"></path>
                </g>
                <g id="Group_2" data-name="Group 2" transform="translate(306.404 392.291)" opacity="0.5">
                    <path id="Path_2" data-name="Path 2"
                        d="M608.962,995.526c-4.483-16.441,22.057-26.056,22.057-26.056s30.823,15.286,35.9,13.1-23.8-18.215-23.8-18.215c8.641-6.263,38.58-8.734,38.58-8.734s15.519,29.83,19.9,26.464-15.089-25.712-15.089-25.712c10.427-2.543,24.773,2.944,24.773,2.944,20.23,10.776,5.349,36.2,5.349,36.2s5.6,10.222,18.572,18.105h0a39.633,39.633,0,0,1,6.2,4.088l-2.417,1.418c-.578-.532-1.163-1.031-1.757-1.491a.016.016,0,0,0-.011-.008l-.026-.02c-.385-.276-.935-.668-1.612-1.141l0,0s0,0,0,0c-1.587-1.012-2.713-1.787-3.481-2.373l-.006-.006c-4.876-3.24-11.533-7.281-14.387-7.274a5.434,5.434,0,0,0-.133-1.412c.042.45.087.92.133,1.412,1.065,11.294-18.755,24.913-31.668,29.313s-9.8-1.8-6.687-10.718,16.93-15.158,19.558-19.482-4.2-3.1-11.538,2-6.67,15.039-18.388,23.506-34.878-9.331-34.878-9.331c10.131-2.37,22.724-16.117,21.581-19.419s-23.726,10.348-27.793,11.543S613.445,1011.967,608.962,995.526Z"
                        transform="translate(-608.452 -955.623)" fill="#77bac0"></path>
                </g>
                <g id="Group_3" data-name="Group 3" transform="translate(582.78 441.191)" opacity="0.5">
                    <path id="Path_3" data-name="Path 3"
                        d="M1888.828,1263.87c16.486-16.011-7.728-45.386-7.728-45.386s-46.274-3.4-50.668-9.423,40.132-4.814,40.132-4.814c-5.734-13.2-38.8-36.614-38.8-36.614s-38.487,23.983-41.264,17.068,35.161-19.5,35.161-19.5c-10.36-10.108-30.781-13.581-30.781-13.581-30.88-1.372-31.047,38.352-31.047,38.352s-13.517,8.024-33.985,8.276h0a53.44,53.44,0,0,0-10,.494l1.833,3.306c1.036-.222,2.058-.4,3.063-.526a.022.022,0,0,1,.019,0l.043-.005c.636-.057,1.544-.134,2.654-.22h0s0,0,.005,0c2.537-.086,4.376-.214,5.669-.367l.012,0c7.884-.415,18.387-.539,21.695,1.427a7.315,7.315,0,0,1,1.124-1.548l-1.124,1.548c-8.987,12.381,4.679,41.793,16.652,55.762s12.609,4.634,15.118-7.855-9.253-29.217-9.337-36.039,7-.713,12.021,10.244-2.577,22.037,5.219,39.908,46.895,13.1,46.895,13.1c-10.136-9.7-15.323-34.306-11.729-37.355s20.445,28.3,24.346,32.473S1872.342,1279.88,1888.828,1263.87Z"
                        transform="translate(-1719.852 -1151.588)" fill="#77bac0"></path>
                </g>
                <g id="Group_6" data-name="Group 6" transform="translate(339.064 356.262)" opacity="0.5">
                    <g id="Group_4" data-name="Group 4" transform="translate(14.382)" opacity="0.5">
                        <path id="Path_4" data-name="Path 4"
                            d="M846.394,838.057s-21.06-21.939-44.263-27.01a3.377,3.377,0,0,0-3.355,5.393l.1.125C802.279,820.745,829.791,828.455,846.394,838.057Z"
                            transform="translate(-798.041 -810.965)" fill="#77bac0"></path>
                    </g>
                    <g id="Group_5" data-name="Group 5" transform="translate(0 14.329)" opacity="0.5">
                        <path id="Path_5" data-name="Path 5"
                            d="M809.452,887.315s-35.035-20.851-66.112-18.321a3.582,3.582,0,0,0-3.325,3.658c.055,1.237.763,2.7,2.89,4.213C748.577,880.9,785.482,881.058,809.452,887.315Z"
                            transform="translate(-740.011 -868.781)" fill="#77bac0"></path>
                    </g>
                </g>
                <g id="Group_9" data-name="Group 9" transform="translate(653.805 387.045)" opacity="0.5">
                    <g id="Group_7" data-name="Group 7" transform="translate(2.314)" opacity="0.5">
                        <path id="Path_6" data-name="Path 6"
                            d="M2016.036,985.168s5-31.262,21.84-49.366a3.516,3.516,0,0,1,6.07,2.623c0,.055-.007.11-.012.166C2043.5,944.186,2024.542,967.1,2016.036,985.168Z"
                            transform="translate(-2016.036 -934.683)" fill="#77bac0"></path>
                    </g>
                    <g id="Group_8" data-name="Group 8" transform="translate(0 3.99)" opacity="0.5">
                        <path id="Path_7" data-name="Path 7"
                            d="M2006.7,1006.192s17.6-38.622,45.686-54.9a3.729,3.729,0,0,1,5.015,1.156c.688,1.091.949,2.762.028,5.319C2054.969,964.59,2023.492,986.619,2006.7,1006.192Z"
                            transform="translate(-2006.699 -950.782)" fill="#77bac0"></path>
                    </g>
                </g>
                <g id="Group_10" data-name="Group 10" transform="translate(506.517 278.772)" opacity="0.5">
                    <path id="Path_8" data-name="Path 8"
                        d="M1418.839,585.542,1431.1,584.2a2.734,2.734,0,0,1,2.571,1.239q1.059,1.655,2.272,3.245a45.9,45.9,0,0,0,4.839,5.433,2.7,2.7,0,0,1,.657,2.97l-4.735,11.992a2.649,2.649,0,0,0,1.3,3.363l10.548,5.261a2.619,2.619,0,0,0,3.36-.921l6.415-9.989a2.629,2.629,0,0,1,2.947-1.13,47.655,47.655,0,0,0,14.948,1.531,2.715,2.715,0,0,1,2.713,1.892l2.145,6.9a2.742,2.742,0,0,0,3.111,1.859l11.477-2.288a2.4,2.4,0,0,0,.663-.218,2.632,2.632,0,0,0,1.475-2.682l-1-9.162-.247-2.232a47.135,47.135,0,0,0,5.573-3.658,47.808,47.808,0,0,0,6.544-6.024,2.629,2.629,0,0,1,2.937-.7l9.656,3.825a2.725,2.725,0,0,0,3.443-1.323l4.024-8.063,1.147-2.314a2.761,2.761,0,0,0-.971-3.559l-8.344-5.367a2.626,2.626,0,0,1-1.17-2.866,47.3,47.3,0,0,0,1.3-10.033,8.309,8.309,0,0,0,.028-.851,1.429,1.429,0,0,1,.019-.286,2.69,2.69,0,0,1,1.9-2.3l11.19-3.507a1.991,1.991,0,0,0,.365-.143,2.736,2.736,0,0,0,1.484-2.96l-2.263-11.445a2.722,2.722,0,0,0-2.963-2.175l-12.79,1.41a2.631,2.631,0,0,1-2.636-1.392,48.14,48.14,0,0,0-3.986-6.135q-1.2-1.573-2.5-3.016a2.773,2.773,0,0,1-.516-2.874l4.548-11.527a2.647,2.647,0,0,0-1.279-3.341l-10.442-5.189a2.767,2.767,0,0,0-3.57.979l-5.078,7.9a2.717,2.717,0,0,1-3.165,1.11,47.55,47.55,0,0,0-14.416-2.631,2.7,2.7,0,0,1-2.538-1.907l-3.156-10.086a2.793,2.793,0,0,0-3.192-1.9l-11.4,2.249a2.67,2.67,0,0,0-2.141,2.919l.053.535,1.161,10.643a2.73,2.73,0,0,1-1.483,2.74l-.011.008a47.274,47.274,0,0,0-7.084,4.473c-1.209.922-2.348,1.893-3.455,2.906a2.677,2.677,0,0,1-2.819.543l-9.8-3.883a2.77,2.77,0,0,0-3.5,1.334l-5.173,10.4a2.988,2.988,0,0,0-.267.915,2.758,2.758,0,0,0,1.227,2.585l6.677,4.269a2.755,2.755,0,0,1,1.242,2.4,2.942,2.942,0,0,1-.139.749,47.369,47.369,0,0,0-2.461,18.569,2.666,2.666,0,0,1-1.438,2.553,2.729,2.729,0,0,1-.427.173l-9.063,2.833a2.712,2.712,0,0,0-1.849,3.1l.051.266,2.2,11.157A2.76,2.76,0,0,0,1418.839,585.542Zm78.527-34.59a31.692,31.692,0,0,1,1.648,5.667,24.908,24.908,0,0,1-1.81,13.452c-.185.378-.379.746-.573,1.114-12.058,22.233-43.488,17.715-48.595-7.423a25.827,25.827,0,0,1,.955-11.732,16.818,16.818,0,0,1,.945-2.312,29.285,29.285,0,0,1,5.874-8.035A25.554,25.554,0,0,1,1497.366,550.952Z"
                        transform="translate(-1413.535 -498.859)" fill="#77bac0"></path>
                </g>
                <g id="Group_11" data-name="Group 11" transform="translate(664.046 291.542)">
                    <path id="Path_9" data-name="Path 9"
                        d="M2051,604.218l7.615-.836a1.7,1.7,0,0,1,1.6.769q.658,1.028,1.411,2.015a28.533,28.533,0,0,0,3,3.375,1.675,1.675,0,0,1,.408,1.844l-2.94,7.447a1.644,1.644,0,0,0,.8,2.088l6.55,3.267a1.626,1.626,0,0,0,2.087-.572l3.984-6.2a1.632,1.632,0,0,1,1.83-.7,29.6,29.6,0,0,0,9.283.951,1.686,1.686,0,0,1,1.685,1.175l1.332,4.283a1.7,1.7,0,0,0,1.932,1.154l7.127-1.421a1.487,1.487,0,0,0,.412-.135,1.635,1.635,0,0,0,.916-1.666l-.618-5.689-.153-1.386a29.262,29.262,0,0,0,3.461-2.272,29.707,29.707,0,0,0,4.064-3.741,1.633,1.633,0,0,1,1.824-.434l6,2.375a1.692,1.692,0,0,0,2.138-.822l2.5-5.007.712-1.437a1.714,1.714,0,0,0-.6-2.21l-5.181-3.333a1.631,1.631,0,0,1-.727-1.779,29.41,29.41,0,0,0,.809-6.231,5.194,5.194,0,0,0,.017-.528.893.893,0,0,1,.012-.177,1.67,1.67,0,0,1,1.182-1.427l6.949-2.178a1.235,1.235,0,0,0,.227-.089,1.7,1.7,0,0,0,.922-1.838l-1.406-7.107a1.69,1.69,0,0,0-1.84-1.351l-7.942.875a1.634,1.634,0,0,1-1.637-.864,29.847,29.847,0,0,0-2.475-3.81q-.745-.977-1.555-1.873a1.722,1.722,0,0,1-.321-1.785l2.824-7.158a1.644,1.644,0,0,0-.794-2.075l-6.484-3.223a1.718,1.718,0,0,0-2.217.608l-3.153,4.907a1.687,1.687,0,0,1-1.966.69,29.528,29.528,0,0,0-8.952-1.634,1.677,1.677,0,0,1-1.576-1.184l-1.96-6.264a1.735,1.735,0,0,0-1.982-1.179l-7.082,1.4a1.659,1.659,0,0,0-1.329,1.813l.033.333.721,6.609a1.7,1.7,0,0,1-.921,1.7l-.006,0a29.342,29.342,0,0,0-4.4,2.778c-.751.573-1.458,1.176-2.145,1.8a1.663,1.663,0,0,1-1.751.337l-6.086-2.411a1.72,1.72,0,0,0-2.175.828l-3.213,6.456a1.851,1.851,0,0,0-.166.568,1.713,1.713,0,0,0,.762,1.605l4.146,2.651a1.711,1.711,0,0,1,.771,1.493,1.854,1.854,0,0,1-.086.466,29.411,29.411,0,0,0-1.528,11.531,1.656,1.656,0,0,1-.893,1.586,1.729,1.729,0,0,1-.265.107l-5.628,1.76a1.684,1.684,0,0,0-1.148,1.927l.031.165,1.364,6.929A1.714,1.714,0,0,0,2051,604.218Zm48.765-21.48a19.691,19.691,0,0,1,1.023,3.519,15.465,15.465,0,0,1-1.124,8.354c-.115.235-.235.463-.355.692-7.488,13.807-27.006,11-30.177-4.61a16.033,16.033,0,0,1,.593-7.286,10.42,10.42,0,0,1,.587-1.436,18.184,18.184,0,0,1,3.647-4.99A15.869,15.869,0,0,1,2099.77,582.738Z"
                        transform="translate(-2047.711 -550.388)" fill="#77bac0"></path>
                </g>
                <g id="Group_12" data-name="Group 12" transform="translate(618.379 256.001)">
                    <path id="Path_10" data-name="Path 10"
                        d="M1868.515,450.618l5.2-1.745a1.216,1.216,0,0,1,1.234.3q.617.619,1.294,1.195a20.4,20.4,0,0,0,2.616,1.9,1.2,1.2,0,0,1,.566,1.228l-.923,5.658a1.178,1.178,0,0,0,.881,1.339l5.08,1.288a1.164,1.164,0,0,0,1.373-.718l1.842-4.947a1.17,1.17,0,0,1,1.174-.77,21.185,21.185,0,0,0,6.64-.749,1.208,1.208,0,0,1,1.358.566l1.584,2.794a1.219,1.219,0,0,0,1.527.513l4.77-2.08a1.063,1.063,0,0,0,.268-.157,1.17,1.17,0,0,0,.387-1.305l-1.3-3.887-.318-.946a21.028,21.028,0,0,0,2.075-2.116,21.316,21.316,0,0,0,2.274-3.237,1.169,1.169,0,0,1,1.21-.582l4.557.749a1.212,1.212,0,0,0,1.371-.9l.985-3.884.28-1.114a1.227,1.227,0,0,0-.759-1.454l-4.133-1.543a1.168,1.168,0,0,1-.779-1.135,21.048,21.048,0,0,0-.383-4.483,3.706,3.706,0,0,0-.068-.373.615.615,0,0,1-.019-.126,1.2,1.2,0,0,1,.609-1.179l4.53-2.582a.884.884,0,0,0,.145-.1,1.215,1.215,0,0,0,.364-1.426l-2.066-4.759a1.211,1.211,0,0,0-1.493-.665l-5.424,1.822a1.17,1.17,0,0,1-1.277-.355,21.369,21.369,0,0,0-2.312-2.289q-.67-.57-1.373-1.074a1.233,1.233,0,0,1-.5-1.2l.885-5.438a1.177,1.177,0,0,0-.872-1.331l-5.028-1.267a1.23,1.23,0,0,0-1.458.763l-1.459,3.914a1.208,1.208,0,0,1-1.27.782,21.139,21.139,0,0,0-6.512.22,1.2,1.2,0,0,1-1.283-.588l-2.325-4.084a1.242,1.242,0,0,0-1.567-.523l-4.742,2.056a1.187,1.187,0,0,0-.654,1.471l.074.228,1.511,4.514a1.213,1.213,0,0,1-.385,1.33l0,0a21.013,21.013,0,0,0-2.655,2.613c-.438.515-.841,1.045-1.226,1.589a1.19,1.19,0,0,1-1.174.5l-4.626-.76a1.232,1.232,0,0,0-1.4.911l-1.264,5.006a1.319,1.319,0,0,0-.03.423,1.225,1.225,0,0,0,.777,1.007l3.3,1.224a1.225,1.225,0,0,1,.767.927,1.311,1.311,0,0,1,.01.339,21.065,21.065,0,0,0,.687,8.3,1.185,1.185,0,0,1-.383,1.245,1.22,1.22,0,0,1-.169.116l-3.67,2.088a1.206,1.206,0,0,0-.51,1.523l.047.111,2.01,4.64A1.227,1.227,0,0,0,1868.515,450.618Zm30.847-22.456a14.1,14.1,0,0,1,1.252,2.306,11.075,11.075,0,0,1,.486,6.016c-.045.182-.094.36-.143.538-3.136,10.8-17.219,11.811-21.816,1.371a11.485,11.485,0,0,1-.695-5.188,7.475,7.475,0,0,1,.192-1.094,13.018,13.018,0,0,1,1.792-4.047A11.363,11.363,0,0,1,1899.362,428.162Z"
                        transform="translate(-1864.124 -408.018)" fill="#007a81"></path>
                </g>
                <g id="Group_13" data-name="Group 13" transform="translate(247.524 555.659)">
                    <path id="Path_11" data-name="Path 11"
                        d="M373.208,1638.354H395.63c1.2-1.019-.831-3.333-2.955-3.489a13.1,13.1,0,0,0-3.422.4c-.309-4.1-2.071-22.521-8.711-21.781-7.467.828,0,8.113,2.111,12.426a102.588,102.588,0,0,1,3.967,9.937c-.606.131-1.234.26-1.875.379-.99-3.039-4.672-13.26-9.355-12.665-5.5.7-3.288,4.8.609,7.228,2.859,1.789,6.37,4.331,8.038,5.56a23.794,23.794,0,0,1-4.385.351C375.81,1636.613,373.935,1637.745,373.208,1638.354Z"
                        transform="translate(-372.093 -1613.467)" fill="#77bac0"></path>
                </g>
                <g id="Group_14" data-name="Group 14" transform="translate(774.347 551.859)">
                    <path id="Path_12" data-name="Path 12"
                        d="M2517.137,1626.278h-25.354c-1.359-1.153.94-3.77,3.342-3.946a14.81,14.81,0,0,1,3.87.458c.349-4.634,2.341-25.467,9.851-24.63,8.443.937,0,9.174-2.387,14.051a115.846,115.846,0,0,0-4.485,11.237c.685.148,1.395.294,2.12.427,1.119-3.436,5.283-14.994,10.578-14.321,6.218.789,3.718,5.423-.688,8.173-3.233,2.023-7.2,4.9-9.09,6.287a26.98,26.98,0,0,0,4.958.4C2514.2,1624.309,2516.315,1625.589,2517.137,1626.278Z"
                        transform="translate(-2491.378 -1598.136)" fill="#77bac0"></path>
                </g>
                <g id="Group_42" data-name="Group 42" transform="translate(384.855 346.014)">
                    <g id="Group_26" data-name="Group 26">
                        <g id="Group_15" data-name="Group 15" transform="translate(120.805 77.971)">
                            <path id="Path_13" data-name="Path 13"
                                d="M1422.75,1083.542l-12.264,145.821s-1.285,8.839,5.29,8.855c10.811.025,53.808,0,53.808,0s-8.137-1.84-8.038-5.98c.116-4.88,14.334-150.076,14.334-150.076Z"
                                transform="translate(-1410.384 -1082.162)" fill="#026666"></path>
                        </g>
                        <g id="Group_16" data-name="Group 16" transform="translate(124.339 75.325)">
                            <path id="Path_14" data-name="Path 14"
                                d="M1484.358,1227.6c-2.126.006-43.753.077-54.281-.058-4.588-.057-5.392-4.079-5.431-6.683a13.031,13.031,0,0,1,.139-2.171l.319-3.79.813-9.66.718-8.535.922-10.967.777-9.256,8.714-103.616,53.131-1.379s-5.988,60.764-10.224,104.995c-.473,4.928-.922,9.654-1.339,14.064q-.2,2.112-.391,4.126c-.393,4.185-.752,8.028-1.064,11.421-.165,1.788-.317,3.45-.454,4.973-.541,5.964-.858,9.774-.862,10.5a6.129,6.129,0,0,0,.1,1.18C1476.823,1227.39,1483.56,1227.6,1484.358,1227.6Z"
                                transform="translate(-1424.644 -1071.486)" fill="#007a81"></path>
                        </g>
                        <g id="Group_17" data-name="Group 17" transform="translate(4.14 0)">
                            <path id="Path_15" data-name="Path 15"
                                d="M939.642,767.552l29.873,119.993,4.09,16.433,13.913,55.889H1246l-51.282-192.315Z"
                                transform="translate(-939.642 -767.552)" fill="#007a81"></path>
                        </g>
                        <g id="Group_18" data-name="Group 18">
                            <path id="Path_16" data-name="Path 16"
                                d="M927.076,767.551l-4.14,1.38,46.513,195.11,5.5-4.174Z"
                                transform="translate(-922.935 -767.551)" fill="#013f3d"></path>
                        </g>
                        <g id="Group_19" data-name="Group 19" transform="translate(46.513 192.316)">
                            <path id="Path_17" data-name="Path 17" d="M1110.614,1547.719h256.9l7.094-4.174H1116.118Z"
                                transform="translate(-1110.614 -1543.545)" fill="#013f3d"></path>
                        </g>
                        <g id="Group_20" data-name="Group 20" transform="translate(136.727 231.439)">
                            <rect id="Rectangle_1" data-name="Rectangle 1" width="55.622" height="2.643"
                                transform="translate(55.622 2.643) rotate(180)" fill="#007a81"></rect>
                        </g>
                        <g id="Group_21" data-name="Group 21" transform="translate(125.612 196.489)">
                            <path id="Path_18" data-name="Path 18"
                                d="M1482.376,1560.383l-.287,2.021-52.309,10.568.718-8.534.342-4.054Z"
                                transform="translate(-1429.78 -1560.383)" fill="#026666"></path>
                        </g>
                        <g id="Group_22" data-name="Group 22" transform="translate(124.341 214.903)">
                            <path id="Path_19" data-name="Path 19"
                                d="M1484.363,1651.22c-2.126.006-43.754.077-54.281-.058-4.589-.057-5.393-4.079-5.431-6.683l52.063-9.795c-.541,5.965-.858,9.774-.862,10.5a6.118,6.118,0,0,0,.1,1.18C1476.828,1651.009,1483.565,1651.22,1484.363,1651.22Z"
                                transform="translate(-1424.651 -1634.684)" fill="#026666"></path>
                        </g>
                        <g id="Group_23" data-name="Group 23" transform="translate(4.14)">
                            <path id="Path_20" data-name="Path 20" d="M939.641,767.551h255.08l41.387,154.561H978.118Z"
                                transform="translate(-939.641 -767.551)" fill="#026666"></path>
                        </g>
                        <g id="Group_24" data-name="Group 24" transform="translate(14.705 8.28)">
                            <path id="Path_21" data-name="Path 21"
                                d="M1256.142,940.543H1017.309l-8.534-34-3.3-13.155-1.346-5.365-8.772-34.94-.455-1.819L990.264,832.8l-2.074-8.263-1.77-7.049-4.149-16.525h235.391l4.556,16.525,1.942,7.049,2.278,8.263,15.008,54.441v0l1.272,4.612.591,2.141,10.362,37.585Z"
                                transform="translate(-982.271 -800.959)" fill="#77bac0"></path>
                        </g>
                        <g id="Group_25" data-name="Group 25" transform="translate(42.618 154.561)">
                            <path id="Path_22" data-name="Path 22" d="M1191.81,1391.2l-87.426,38.205L1094.9,1391.2Z"
                                transform="translate(-1094.898 -1391.203)" fill="#026666"></path>
                        </g>
                    </g>
                    <g id="Group_41" data-name="Group 41" transform="translate(102.777 24.808)">
                        <g id="Group_31" data-name="Group 31" transform="translate(16.337)">
                            <g id="Group_28" data-name="Group 28" transform="translate(0.082 0.081)">
                                <g id="Group_27" data-name="Group 27">
                                    <path id="Path_23" data-name="Path 23"
                                        d="M1445.634,938.753c-19.513,0-38.021-15.875-41.257-35.388s10.006-35.388,29.519-35.388,38.02,15.875,41.257,35.388S1465.147,938.753,1445.634,938.753Zm-10.726-64.674c-16.149,0-27.108,13.138-24.429,29.286s17.995,29.286,34.143,29.286,27.108-13.138,24.429-29.286S1451.057,874.079,1434.908,874.079Z"
                                        transform="translate(-1403.891 -867.978)" fill="#e6f0ff"></path>
                                </g>
                            </g>
                            <g id="Group_30" data-name="Group 30">
                                <g id="Group_29" data-name="Group 29">
                                    <path id="Path_24" data-name="Path 24"
                                        d="M1445.4,938.589c-19.557,0-38.107-15.911-41.351-35.468s10.029-35.469,29.586-35.469c10.624,0,21.379,4.7,29.509,12.906a42.381,42.381,0,0,1,11.842,22.563,2.585,2.585,0,0,1-2.612,3.131,3.847,3.847,0,0,1-3.651-3.131,34.892,34.892,0,0,0-9.748-18.576c-6.7-6.755-15.553-10.63-24.3-10.63-16.1,0-27.033,13.1-24.362,29.206s17.945,29.205,34.049,29.205a3.847,3.847,0,0,1,3.651,3.132A2.585,2.585,0,0,1,1445.4,938.589Z"
                                        transform="translate(-1403.56 -867.652)" fill="#007a81"></path>
                                </g>
                            </g>
                        </g>
                        <g id="Group_39" data-name="Group 39" transform="translate(0 94.752)">
                            <g id="Group_32" data-name="Group 32" transform="translate(0 0)">
                                <path id="Path_25" data-name="Path 25"
                                    d="M1462.959,1253.331l.561,3.384a2.777,2.777,0,0,1-2.8,3.357H1342.161a4.136,4.136,0,0,1-3.913-3.357l-.561-3.384a2.777,2.777,0,0,1,2.8-3.356h118.558A4.136,4.136,0,0,1,1462.959,1253.331Z"
                                    transform="translate(-1337.641 -1249.975)" fill="#e6f0ff"></path>
                            </g>
                            <g id="Group_38" data-name="Group 38">
                                <g id="Group_33" data-name="Group 33" transform="translate(0 0)">
                                    <path id="Path_26" data-name="Path 26"
                                        d="M1424.658,1249.975l1.675,10.1h-84.171a4.136,4.136,0,0,1-3.913-3.357l-.561-3.384a2.777,2.777,0,0,1,2.8-3.356Z"
                                        transform="translate(-1337.641 -1249.975)" fill="#007a81"></path>
                                </g>
                                <g id="Group_34" data-name="Group 34" transform="translate(44.485)">
                                    <path id="Path_27" data-name="Path 27"
                                        d="M1542.2,1249.974l-7.639,10.1h-17.425l7.638-10.1Z"
                                        transform="translate(-1517.139 -1249.974)" fill="#026666"></path>
                                </g>
                                <g id="Group_35" data-name="Group 35" transform="translate(72.541)">
                                    <path id="Path_28" data-name="Path 28"
                                        d="M1644.82,1249.974l1.675,10.1h-16.151l7.639-10.1Z"
                                        transform="translate(-1630.345 -1249.974)" fill="#026666"></path>
                                </g>
                                <g id="Group_36" data-name="Group 36" transform="translate(16.429)">
                                    <path id="Path_29" data-name="Path 29"
                                        d="M1429,1249.974l-7.639,10.1h-17.425l7.639-10.1Z"
                                        transform="translate(-1403.932 -1249.974)" fill="#026666"></path>
                                </g>
                                <g id="Group_37" data-name="Group 37" transform="translate(0 0)">
                                    <path id="Path_30" data-name="Path 30"
                                        d="M1351.078,1249.975l-7.639,10.1h-1.277a4.136,4.136,0,0,1-3.913-3.357l-.561-3.384a2.777,2.777,0,0,1,2.8-3.356Z"
                                        transform="translate(-1337.641 -1249.975)" fill="#026666"></path>
                                </g>
                            </g>
                        </g>
                        <g id="Group_40" data-name="Group 40" transform="translate(48.971 86.597)">
                            <path id="Path_31" data-name="Path 31"
                                d="M1535.238,1217.772h.712l.564,3.4h2.129l.107.648h-2.841Z"
                                transform="translate(-1535.238 -1217.598)" fill="#e6f0ff"></path>
                            <path id="Path_32" data-name="Path 32"
                                d="M1550.076,1223.129a1.32,1.32,0,0,1,1.366-1.6,1.943,1.943,0,0,1,1.891,1.6,1.32,1.32,0,0,1-1.373,1.591A1.941,1.941,0,0,1,1550.076,1223.129Zm2.557,0a1.158,1.158,0,0,0-1.1-.984.764.764,0,0,0-.757.984,1.161,1.161,0,0,0,1.095.983A.768.768,0,0,0,1552.634,1223.129Z"
                                transform="translate(-1546.382 -1220.427)" fill="#e6f0ff"></path>
                            <path id="Path_33" data-name="Path 33"
                                d="M1567.789,1224.7l-.063-.376a1.032,1.032,0,0,1-.916.44,1.194,1.194,0,0,1-1.246-.955c-.112-.677.361-1,1.072-1a2.767,2.767,0,0,1,.866.127l-.01-.058a.771.771,0,0,0-.861-.654,1.915,1.915,0,0,0-.842.191l-.284-.561a2.354,2.354,0,0,1,1.121-.255,1.428,1.428,0,0,1,1.557,1.29l.3,1.811Zm-.195-1.279a2.181,2.181,0,0,0-.72-.121c-.44,0-.67.179-.619.486a.614.614,0,0,0,.665.451c.463,0,.767-.26.7-.642Z"
                                transform="translate(-1558.005 -1220.479)" fill="#e6f0ff"></path>
                            <path id="Path_34" data-name="Path 34"
                                d="M1579.139,1219.763a1.211,1.211,0,0,1,1.155-1.585,1.525,1.525,0,0,1,1.131.538l-.272-1.643h.7l.7,4.224h-.7l-.085-.51a1,1,0,0,1-.946.573A1.8,1.8,0,0,1,1579.139,1219.763Zm2.47,0a1.125,1.125,0,0,0-1.047-.978c-.48,0-.818.371-.715.99a1.115,1.115,0,0,0,1.042.978A.766.766,0,0,0,1581.609,1219.763Z"
                                transform="translate(-1568.237 -1217.072)" fill="#e6f0ff"></path>
                            <path id="Path_35" data-name="Path 35"
                                d="M1593.767,1217.212h.752l.11.665h-.752Zm.217,1.134h.7l.507,3.055h-.7Z"
                                transform="translate(-1579.262 -1217.177)" fill="#e6f0ff"></path>
                            <path id="Path_36" data-name="Path 36"
                                d="M1601.155,1221.6h.7l.079.474a.9.9,0,0,1,.865-.538,1.278,1.278,0,0,1,1.282,1.175l.322,1.944h-.7l-.288-1.736a.778.778,0,0,0-.777-.746c-.4,0-.641.284-.563.758l.286,1.724h-.7Z"
                                transform="translate(-1584.819 -1220.427)" fill="#e6f0ff"></path>
                            <path id="Path_37" data-name="Path 37"
                                d="M1616.371,1225.223l.173-.526a2.265,2.265,0,0,0,1.141.324c.625,0,.913-.324.811-.937l-.039-.237a1.055,1.055,0,0,1-.983.561,1.685,1.685,0,0,1-1.627-1.441,1.141,1.141,0,0,1,1.15-1.435,1.58,1.58,0,0,1,1.157.521l-.076-.457h.7l.4,2.43a1.389,1.389,0,0,1-.2,1.151,1.483,1.483,0,0,1-1.187.411A2.964,2.964,0,0,1,1616.371,1225.223Zm1.946-2.257a1.046,1.046,0,0,0-1.037-.845.687.687,0,0,0-.727.85,1.019,1.019,0,0,0,1.008.845A.71.71,0,0,0,1618.317,1222.967Z"
                                transform="translate(-1595.852 -1220.427)" fill="#e6f0ff"></path>
                        </g>
                    </g>
                </g>
                <g id="Group_48" data-name="Group 48" transform="translate(703.546 405.7) rotate(-3)">
                    <g id="Group_44" data-name="Group 44" transform="translate(0 0)" opacity="0.99">
                        <path id="Path_38" data-name="Path 38"
                            d="M1190.031,1125.178c-.359,2.341-.627,4.086-.986,6.427-1.661,1.45-7.432,2.407-11.15,1.924a27.554,27.554,0,0,1,.771-7.7A11.616,11.616,0,0,1,1190.031,1125.178Z"
                            transform="translate(-1125.908 -1091.841)" fill="url(#linear-gradient-2)"></path>
                        <path id="Path_39" data-name="Path 39"
                            d="M1183.156,1077.441c1.97.172,4.113.3,5.76-.791a7.63,7.63,0,0,0,2.519-3.47,19.22,19.22,0,0,0,1.741-7.68,12.229,12.229,0,0,0-2.386-7.416,9.006,9.006,0,0,0-6.784-3.578,11.049,11.049,0,0,0-5.315,1.473,4.375,4.375,0,0,0-2.253,2.16,12.439,12.439,0,0,0-.181,2.91c-.208,2-1.869,3.686-1.833,5.7.025,1.391.872,2.666.908,4.057.029,1.111-.463,2.236-.175,3.31a3.872,3.872,0,0,0,2.521,2.32A19.635,19.635,0,0,0,1183.156,1077.441Z"
                            transform="translate(-1128.2 -1039.563)" fill="url(#linear-gradient-3)"></path>
                        <path id="Path_40" data-name="Path 40"
                            d="M1148.947,1083.509a9.409,9.409,0,0,1-4.408-.548c-1.07-.478-2.066-1.618-1.666-2.719.266-.73,1.064-1.177,1.288-1.92.382-1.269-1.1-2.474-.905-3.786.147-1.007,1.2-1.614,1.654-2.525a3.063,3.063,0,0,0-.244-2.853,7.956,7.956,0,0,0-2.065-2.131,3.235,3.235,0,0,1-.943-.971,1.055,1.055,0,0,1,.135-1.258,1.483,1.483,0,0,1,.544-.261,24.053,24.053,0,0,1,15.56.413c.737.276,1.562.715,1.675,1.494a2.322,2.322,0,0,1-.159,1.016q-1.6,5.094-3.353,10.141c-.613,1.769-1.321,3.646-2.847,4.731A8.085,8.085,0,0,1,1148.947,1083.509Z"
                            transform="translate(-1086.454 -1046.286)" fill="#564115"></path>
                        <path id="Path_41" data-name="Path 41"
                            d="M1137.626,1027.1c.26-1.224,2.665-1.858,6.249-1.88,1.874-5.252,8.4-8.241,17.456-5.859,10.341,2.719,9.207,14.742,9.207,14.742-.481,2.261-8.238,2.526-17.327.592S1137.145,1029.365,1137.626,1027.1Z"
                            transform="translate(-1096.473 -1012.508)" fill="url(#linear-gradient-4)"></path>
                        <g id="Group_43" data-name="Group 43">
                            <path id="Path_42" data-name="Path 42"
                                d="M1388.5,1189.8c-.009-.083-.008-.165-.011-.248a3.518,3.518,0,0,1,0-.383c.006-.085.019-.169.031-.252a3.521,3.521,0,0,1,.071-.357c.022-.082.046-.163.074-.243a3.23,3.23,0,0,1,.136-.329c.036-.075.072-.151.114-.222a3.075,3.075,0,0,1,.2-.3c.048-.064.093-.13.146-.19a2.97,2.97,0,0,1,.284-.272c.054-.047.1-.1.162-.143a2.989,2.989,0,0,1,.528-.321,3.048,3.048,0,0,1,1.187-.265,3.558,3.558,0,0,0,.187,2.807,3.856,3.856,0,0,0,.519.764c.03.035.057.074.088.108a3.793,3.793,0,0,0,.656.567c.029.02.058.042.088.061a3.641,3.641,0,0,0,.735.358c.052.019.1.037.157.053a3.384,3.384,0,0,0,.839.157c.089,0,.177-.016.266-.019a3.013,3.013,0,0,1-1.553,1.722,3.043,3.043,0,0,1-.711.23h0l-.006,0h0a3.154,3.154,0,0,1-.737.052,3.378,3.378,0,0,1-.839-.157h0c-.053-.016-.1-.034-.156-.053a3.632,3.632,0,0,1-.736-.359c-.03-.02-.058-.041-.087-.061h0a3.785,3.785,0,0,1-.656-.567c-.031-.035-.058-.073-.088-.108a3.859,3.859,0,0,1-.52-.764,3.808,3.808,0,0,1-.244-.631c-.021-.071-.03-.142-.046-.213A3.665,3.665,0,0,1,1388.5,1189.8Z"
                                transform="translate(-1383.033 -1138.673)" fill="#a3abb7"></path>
                            <path id="Path_43" data-name="Path 43"
                                d="M1171.743,1079.17a7.289,7.289,0,0,1,1.207-.708l59.281-27.6c-.034.255-.089.5-.111.763l-61.912,28.822a7.3,7.3,0,0,0-1.1.648c-.032.023-.072.037-.1.061Z"
                                transform="translate(-1165.911 -1036.824)" fill="url(#linear-gradient-5)"></path>
                            <path id="Path_44" data-name="Path 44"
                                d="M1104.269,1060.393l2.742-1.988,4.087,6.631-2.742,1.988Z"
                                transform="translate(-1028.736 -1042.497)" fill="url(#linear-gradient-6)"></path>
                            <path id="Path_45" data-name="Path 45"
                                d="M1118.59,1035.447l2.523-.379-.787,5.784-2.742,1.988Z"
                                transform="translate(-1042.051 -1024.943)" fill="#a3abb7"></path>
                            <path id="Path_46" data-name="Path 46"
                                d="M1039.525,1079.81l2.742-1.988,16.046-2.418-2.742,1.988Z"
                                transform="translate(-959.905 -1055.283)" fill="url(#linear-gradient-7)"></path>
                            <path id="Path_47" data-name="Path 47"
                                d="M1040.922,1084.234c.106-.1.216-.2.318-.307a13.3,13.3,0,0,0,.883-1c.013-.016.028-.031.042-.048a13.532,13.532,0,0,0,.8-1.143c.076-.12.144-.245.217-.368.166-.283.325-.57.471-.864.072-.145.142-.291.209-.439.136-.3.259-.6.375-.909.051-.136.106-.271.153-.409.152-.444.288-.9.4-1.355l2.742-1.988a13.752,13.752,0,0,1-5.263,8.03l-2.742,1.988c.1-.071.185-.151.28-.224q.2-.15.384-.307C1040.443,1084.681,1040.686,1084.461,1040.922,1084.234Z"
                                transform="translate(-949.122 -1055.283)" fill="#a3abb7"></path>
                            <path id="Path_48" data-name="Path 48"
                                d="M1061.828,996.218a13.792,13.792,0,0,0-6.49,1.265,13.316,13.316,0,0,0-1.469.81c-.125.078-.246.159-.368.24s-.263.163-.386.252l2.742-1.988a13.345,13.345,0,0,1,2.223-1.3,13.8,13.8,0,0,1,6.49-1.265,16.282,16.282,0,0,1,11.77,6.133l-2.742,1.988A16.282,16.282,0,0,0,1061.828,996.218Z"
                                transform="translate(-981.301 -994.215)" fill="url(#linear-gradient-8)"></path>
                            <path id="Path_49" data-name="Path 49"
                                d="M1053.783,1044.521a7.257,7.257,0,0,1,1.1-.648l61.912-28.822c.022-.258.077-.508.111-.763a13.806,13.806,0,0,1,5.881-9.721c.121-.082.243-.163.368-.24a13.339,13.339,0,0,1,1.469-.81,13.793,13.793,0,0,1,6.49-1.265,16.281,16.281,0,0,1,11.77,6.133l-13.236,1.989-2.523.379-1.006,7.393,4.087,6.631,16.046-2.418c-.109.46-.245.911-.4,1.355-.047.138-.1.272-.153.409-.116.307-.239.611-.375.909q-.1.222-.209.439c-.146.294-.305.581-.471.864-.073.123-.141.248-.217.368a13.523,13.523,0,0,1-.8,1.143c-.013.017-.029.032-.042.048a13.33,13.33,0,0,1-.883,1c-.1.105-.212.2-.318.307-.236.227-.48.447-.734.657q-.189.157-.384.307a13.285,13.285,0,0,1-2.494,1.522,13.779,13.779,0,0,1-6.495,1.269,15.71,15.71,0,0,1-7.749-2.525l-61.922,28.821a7.558,7.558,0,0,1-3.549.692,9,9,0,0,1-7.5-5.039A8.108,8.108,0,0,1,1053.783,1044.521Zm2.272,6.851a3.706,3.706,0,0,0,.079.426c.016.071.025.142.046.213a3.793,3.793,0,0,0,.244.631,3.855,3.855,0,0,0,.519.764c.03.036.057.074.088.108a3.787,3.787,0,0,0,.656.567c.03.02.057.042.087.061a3.635,3.635,0,0,0,.736.359c.052.019.1.037.156.053.1.031.2.055.308.078a3.353,3.353,0,0,0,.531.079,3.152,3.152,0,0,0,.737-.052l.007,0a2.986,2.986,0,0,0,2.264-1.952,3.523,3.523,0,0,0-.184-2.807,3.7,3.7,0,0,0-3.082-2.069c-.09,0-.179.016-.269.019a3.048,3.048,0,0,0-1.187.265,2.984,2.984,0,0,0-.528.321c-.058.044-.107.1-.161.143a2.914,2.914,0,0,0-.284.272c-.053.06-.1.125-.146.19a3.058,3.058,0,0,0-.2.3c-.042.072-.078.147-.113.222a3.186,3.186,0,0,0-.136.329c-.028.08-.052.161-.074.243a3.348,3.348,0,0,0-.071.357c-.012.084-.025.167-.031.252a3.493,3.493,0,0,0,0,.384C1056.047,1051.206,1056.046,1051.288,1056.055,1051.371Z"
                                transform="translate(-1050.59 -1000.248)" fill="url(#linear-gradient-9)"></path>
                        </g>
                        <path id="Path_50" data-name="Path 50"
                            d="M1364.722,1145.189a4.967,4.967,0,0,1-1.177,1.005,1.954,1.954,0,0,0-.877,1.233,2.3,2.3,0,0,0,.359,1.275l.855,1.678c.337-.532,1.27-.49,1.788-.132a3.132,3.132,0,0,1,1.014,1.558,4.437,4.437,0,0,1,.368,2.144c-.08.565-.349,1.087-.463,1.646a1.493,1.493,0,0,0,.45,1.55,7.383,7.383,0,0,1-3.675,1.64,17.216,17.216,0,0,1-4.718-7.91,5.365,5.365,0,0,1-.022-3.614,4.234,4.234,0,0,1,2.344-2.067,12.59,12.59,0,0,1,3.122-.674,1.046,1.046,0,0,1,.671.063C1364.958,1144.7,1364.853,1145,1364.722,1145.189Z"
                            transform="translate(-1347.677 -1107.251)" fill="url(#linear-gradient-10)"></path>
                    </g>
                    <path id="Path_51" data-name="Path 51"
                        d="M1132.921,1354.32s-2.361,28.656-4.776,43.752c0,0-.718,25.59,2.523,44.4a1.7,1.7,0,0,1-1.719,2.05l-14.495-1.043a1.693,1.693,0,0,1-1.517-1.571l-.172-1.8a3.674,3.674,0,0,1,3.7-4.159l2.988.17s-8.3-21.633-7.671-46.787A40.711,40.711,0,0,1,1132.921,1354.32Z"
                        transform="translate(-1052.411 -1265.074)" fill="#163560"></path>
                    <g id="Group_45" data-name="Group 45" transform="translate(60.336 145.363)">
                        <path id="Path_52" data-name="Path 52"
                            d="M1124.438,1582.423l2.988.158a119.388,119.388,0,0,1-6.641-26.241,25.561,25.561,0,0,0,15.3.79c.118,8.553.654,21.059,2.561,31.381a1.63,1.63,0,0,1-1.719,1.913l-14.495-.973a1.636,1.636,0,0,1-1.517-1.466l-.172-1.681A3.527,3.527,0,0,1,1124.438,1582.423Z"
                            transform="translate(-1120.724 -1556.34)" fill="#0b1628"></path>
                    </g>
                    <path id="Path_53" data-name="Path 53"
                        d="M1117.6,1153.823l6.483-2.659c8.74.5,11.287-1.89,11.287-1.89a18.327,18.327,0,0,1,3.321-.74,9.314,9.314,0,0,1,10.02,6.27c4.6,13.851,3.921,44.674,3.921,44.674-.363,10.775-20.617,41.046-20.617,41.046-2.833,14.846-.113,39.309.868,47.024a1.894,1.894,0,0,1-2.1,2.121l-17.5-2.077a1.894,1.894,0,0,1-1.67-1.923l.027-1.2a4.776,4.776,0,0,1,5.249-4.647l3.574.356c-5.615-17.094-7.437-41.7-7.437-41.7-.139-14.171,5.712-35.793,5.712-35.793l-.683-29.109Z"
                        transform="translate(-1072.119 -1110.231)" fill="#f99746"></path>
                    <path id="Path_54" data-name="Path 54"
                        d="M1236.578,1175.953l11.855,10.725c3.945-7.052,14.1-16.573,14.1-16.573s5.492,1.528,5.174,9.308c-.327,8.007-4.726,10.445-4.726,10.445-5.451,5.59-13.927,7.843-13.927,7.843-9.853-6.808-16.889-19.488-16.889-19.488Z"
                        transform="translate(-1217.057 -1126.514)" fill="#f99746"></path>
                    <g id="Group_46" data-name="Group 46" transform="translate(39.483 38.233)">
                        <path id="Path_55" data-name="Path 55"
                            d="M1117.02,1279.838l3.574.356c-5.615-17.094-7.437-41.7-7.437-41.7-.139-14.171,5.712-35.793,5.712-35.793l-.325-13.835c10.958-.222,12.733-8.72,10.834-21.922s-9.343-14.048-9.343-14.048l3.925-1.61c2.914,1.112,5.276,4.786,6.8,8.362,2.406,5.639,10.384,5.346,10.877.11.369-3.916-2.275-8.873-3.692-11.073a10.2,10.2,0,0,1,3.528-.1c1.868,2.028,4.752,6.919,5.633,15.886,1.253,12.756,3.218,14.213,5.332,15.877.238,7.783.33,19.142.33,19.142-.363,10.775-20.617,41.046-20.617,41.046-2.833,14.846-.113,39.309.868,47.024a1.894,1.894,0,0,1-2.1,2.121l-17.5-2.077a1.894,1.894,0,0,1-1.67-1.923l.026-1.2A4.776,4.776,0,0,1,1117.02,1279.838Z"
                            transform="translate(-1111.744 -1148.486)" fill="#1c468a"></path>
                    </g>
                    <g id="Group_47" data-name="Group 47" transform="translate(39.483 139.325)">
                        <path id="Path_56" data-name="Path 56"
                            d="M1191.4,1591.3a4.776,4.776,0,0,1,5.249-4.647l3.574.356c-3.2-9.751-5.17-21.94-6.271-30.616,8.2,3.123,13.929,1.877,16.743.771-.73,14.12,1.169,31.041,1.955,37.22a1.894,1.894,0,0,1-2.1,2.121l-17.5-2.077a1.894,1.894,0,0,1-1.67-1.923Z"
                            transform="translate(-1191.368 -1556.389)" fill="#16284c"></path>
                    </g>
                </g>
                <g id="Group_74" data-name="Group 74" transform="translate(286.14 428.104)">
                    <g id="Group_69" data-name="Group 69" transform="translate(0)">
                        <g id="Group_49" data-name="Group 49" transform="translate(63.088)">
                            <path id="Path_57" data-name="Path 57"
                                d="M805.8,1105.3s.6-6.516-6.683-6.516a8.551,8.551,0,0,1,3.347,1.8s-4.644-2.726-9.7,1.463-1.914,14.695-3.45,16.689-7.521,2.394-6.789,8.844,18.992,14.528,17.82,19.864c0,0,7.156-10.52,2.039-15.321,0,0,2.494,2.35,2.748,5.142,0,0,.677-5.452-2.793-7.2-3.07-1.543-5.585-7.187-5.319-8.2S805.8,1105.3,805.8,1105.3Z"
                                transform="translate(-782.469 -1098.785)" fill="#2c3a64"></path>
                        </g>
                        <g id="Group_50" data-name="Group 50" transform="translate(71.54 37.802)">
                            <path id="Path_58" data-name="Path 58"
                                d="M824.289,1251.316s5.439,22.5,10.778,27c3.209,2.7,12.752,8.909,12.752,8.909l-3.969,1.44s-13.235-4.47-16.2-7.954-11.076-20.941-11.076-20.941Z"
                                transform="translate(-816.575 -1251.316)" fill="#ffb27d"></path>
                        </g>
                        <g id="Group_51" data-name="Group 51" transform="translate(77.305 73.154)">
                            <path id="Path_59" data-name="Path 59"
                                d="M873.019,1402.743l-1.279-3.166a8.978,8.978,0,0,0-8.325-5.616H839.836V1472.8h97.54v-63.876h-55.2A9.88,9.88,0,0,1,873.019,1402.743Z"
                                transform="translate(-839.836 -1393.961)" fill="#007a81"></path>
                        </g>
                        <g id="Group_52" data-name="Group 52" transform="translate(24.744 56.063)">
                            <path id="Path_60" data-name="Path 60"
                                d="M631.141,1346.271c.048.086.1.175.15.264,1.19,2.068,3.92,7.138,6.928,12.685,1.423,2.632,2.912,5.372,4.325,7.949,2.434,4.449,4.649,8.411,5.941,10.505,1.314,2.129,2.282,3.625,2.673,4.223l0,0a.987.987,0,0,1,.127.617,32.315,32.315,0,0,0,.086,5.579,42.794,42.794,0,0,0,13.983,27.718l3.619.535s-5.121-18.97-6.629-29.7a20.625,20.625,0,0,1-.277-4.251c.267-2.794-.229-6.9-1.168-11.606a259.987,259.987,0,0,0-7.4-26.865c-.169-.525-5.257-18.932-5.257-18.932-4.271,3.733-19.849,5.273-19.849,5.273S625.757,1336.7,631.141,1346.271Z"
                                transform="translate(-627.75 -1325)" fill="#2f539b"></path>
                        </g>
                        <g id="Group_53" data-name="Group 53" transform="translate(58.38 143.589)">
                            <path id="Path_61" data-name="Path 61"
                                d="M778.656,1686.568h-15.1a8.3,8.3,0,0,1,.427-4.048c.756-1.675,1.833-1.729.138-4.355.96.988,4.044,1.4,6.228,1.1.267.434,1.725,3.343,2.618,3.985C773.951,1683.963,778.352,1683.71,778.656,1686.568Z"
                                transform="translate(-763.472 -1678.165)" fill="#233862"></path>
                        </g>
                        <g id="Group_54" data-name="Group 54" transform="translate(28.135 68.43)">
                            <path id="Path_62" data-name="Path 62"
                                d="M641.433,1383.8c.048.086.1.175.15.264,1.19,2.068,7.627,13.958,10.634,19.5-3.485-14.337-1.061-28.674-1.061-28.674Z"
                                transform="translate(-641.433 -1374.898)" fill="#233862"></path>
                        </g>
                        <g id="Group_55" data-name="Group 55" transform="translate(72.585 5.494)">
                            <path id="Path_63" data-name="Path 63"
                                d="M832.568,1121.059c.1-.4-8.625,3.943-9.068,4.434-4.091,4.538-2.925,10.461-.584,10.518,1.5.036,1.21,2.533,1.21,2.533l16.727-7.076S838.84,1119.723,832.568,1121.059Z"
                                transform="translate(-820.791 -1120.953)" fill="#2c3a64"></path>
                        </g>
                        <g id="Group_56" data-name="Group 56" transform="translate(69.939 34.423)">
                            <path id="Path_64" data-name="Path 64"
                                d="M818.915,1237.682s2.545,5.085,2.228,9.211c0,0-3.069,4.845-11.03,6.072C810.113,1252.965,816.957,1237.678,818.915,1237.682Z"
                                transform="translate(-810.113 -1237.682)" fill="#f99746"></path>
                        </g>
                        <g id="Group_57" data-name="Group 57" transform="translate(2.002 52.912)">
                            <path id="Path_65" data-name="Path 65"
                                d="M573.893,1321.832l.051-2.825c-5.628.71-19.4-6.725-19.4-6.725s-5.887,3.916-6.693,15.1c-.394,5.458-2.882,28.541-3.157,35.434-.1,2.5-.134,4.281-.145,4.993a.012.012,0,0,1,0,.007.982.982,0,0,1-.239.581,32.248,32.248,0,0,0-3.049,4.674c-8.587,15.977-4.1,37.686-4.1,37.686l1.994-.507s7.261-22.5,12.006-32.24a20.376,20.376,0,0,1,2.149-3.679c1.784-2.167,3.666-5.847,5.52-10.276C562.336,1355.681,573.893,1321.832,573.893,1321.832Z"
                                transform="translate(-535.987 -1312.283)" fill="#2f539b"></path>
                        </g>
                        <g id="Group_58" data-name="Group 58" transform="translate(0 143.48)">
                            <path id="Path_66" data-name="Path 66"
                                d="M543.094,1686.238h-15.1a8.293,8.293,0,0,1,.427-4.048c.756-1.675,1.94-2.437,1.656-4.464a5.439,5.439,0,0,0,4.707,1.8,16.574,16.574,0,0,0,2.62,3.4C538.39,1683.632,542.79,1683.38,543.094,1686.238Z"
                                transform="translate(-527.91 -1677.726)" fill="#233862"></path>
                        </g>
                        <g id="Group_59" data-name="Group 59" transform="translate(19.955 25.864)">
                            <path id="Path_67" data-name="Path 67"
                                d="M657.393,1230.232c-2.029.346.331,1.958-2.459,2.261-3.971.434-8.071.73-10.219,1.587a2.306,2.306,0,0,0-1.471,1.192c-.931,2.8-6.827,7.609-6.827,7.609-26.3-1.2-27.99-12.917-27.99-12.917,17.067-16.575,31.586-25.609,43.585-26.728,2.921-.272,6.857.093,8.7.915,4.2,1.869,6.5,7.554,6.5,7.554S665.1,1228.917,657.393,1230.232Z"
                                transform="translate(-608.428 -1203.147)" fill="#f99746"></path>
                        </g>
                        <g id="Group_60" data-name="Group 60" transform="translate(54.405 33.818)">
                            <path id="Path_68" data-name="Path 68"
                                d="M759.491,1256.632c-3.971.434-8.071.73-10.219,1.587-6.208-12.373,5.311-22.98,5.311-22.98S758.621,1251.669,759.491,1256.632Z"
                                transform="translate(-747.435 -1235.239)" fill="#ed7d2b"></path>
                        </g>
                        <g id="Group_61" data-name="Group 61" transform="translate(57.755 31.586)">
                            <path id="Path_69" data-name="Path 69"
                                d="M773.083,1226.245s-9.986-.545-11.76,5.724,3.329,31.294,4.428,33.877c2,4.7,12.1,18.708,12.1,18.708l3.236-1.676s-6.5-20.5-7.951-22.531C770.858,1257.161,776.072,1228.972,773.083,1226.245Z"
                                transform="translate(-760.952 -1226.233)" fill="#ffb27d"></path>
                        </g>
                        <g id="Group_62" data-name="Group 62" transform="translate(74.219 87.793)">
                            <path id="Path_70" data-name="Path 70"
                                d="M831.052,1453.468a14.741,14.741,0,0,1,1.507,1.547c.672.821.081,1.117,2.01,4.833,0,0-.1.516-.518.422s-1.875-1.535-2.621-1.432c0,0-.534.44-.592,1.9a35.136,35.136,0,0,1-.3,4.943c-.237.566-1.97-2.374-2.823-4.5-.748-1.863-.019-8.147-.019-8.147Z"
                                transform="translate(-827.382 -1453.031)" fill="#ffb27d"></path>
                        </g>
                        <g id="Group_63" data-name="Group 63" transform="translate(56.157 29.734)">
                            <path id="Path_71" data-name="Path 71"
                                d="M754.5,1234.733c.026.147,9.45,1.734,15.344-1.258,0,0,4.924-15.426-2.113-14.688s-11.2,2.954-11.381,6.323A64.854,64.854,0,0,1,754.5,1234.733Z"
                                transform="translate(-754.503 -1218.761)" fill="#f99746"></path>
                        </g>
                        <g id="Group_64" data-name="Group 64" transform="translate(72.008 21.929)">
                            <path id="Path_72" data-name="Path 72"
                                d="M818.474,1193.289a6.274,6.274,0,0,0,1.9,4.393c1.252,1.289,3.06,2.295,4.331,1.025a13.793,13.793,0,0,0,1.965-2.374c1.1-1.887,2.406-3.816,2.406-3.816l-5.652-4.952-.338-.3a14.406,14.406,0,0,1-4.21,4.778A1.312,1.312,0,0,0,818.474,1193.289Z"
                                transform="translate(-818.463 -1187.269)" fill="#ffb27d"></path>
                        </g>
                        <g id="Group_65" data-name="Group 65" transform="translate(76.861 22.225)">
                            <path id="Path_73" data-name="Path 73"
                                d="M843.8,1193.416s-1.307,1.924-2.4,3.814c-3.513-2.166-3.517-6.515-3.246-8.768Z"
                                transform="translate(-838.044 -1188.462)" fill="#ed985f"></path>
                        </g>
                        <g id="Group_66" data-name="Group 66" transform="translate(76.627 12.125)">
                            <path id="Path_74" data-name="Path 74"
                                d="M843.245,1165.244s-8.53-4.746-5.492-10.012,3.982-9.426,9.557-6.618,5.464,5.422,4.878,7.427S845.542,1166.343,843.245,1165.244Z"
                                transform="translate(-837.099 -1147.709)" fill="#ffb27d"></path>
                        </g>
                        <g id="Group_67" data-name="Group 67" transform="translate(75.73 11.412)">
                            <path id="Path_75" data-name="Path 75"
                                d="M850.907,1150.8c-.391-2.338-1.578-2.562-2.407-2.405a6.822,6.822,0,0,0-8.3-3.177,11.614,11.614,0,0,1-6.723,4.038s.99,1.842,5.068,2.982a6.969,6.969,0,0,0,4.023-.322,22.763,22.763,0,0,1-5.788,2.182c5.374.492,10.488-4.422,11.018-4.947a7.651,7.651,0,0,1,.423,3.521c-.354,1.584-1.76,4.452-.9,4.824C847.323,1157.5,851.493,1154.31,850.907,1150.8Z"
                                transform="translate(-833.481 -1144.831)" fill="#2c3a64"></path>
                        </g>
                        <g id="Group_68" data-name="Group 68" transform="translate(103.089 73.56)">
                            <path id="Path_76" data-name="Path 76"
                                d="M945.13,1395.761s-2.38,1.785-.586,2.952,5,1.482,5.01.717C949.6,1396.86,948.315,1395.032,945.13,1395.761Z"
                                transform="translate(-943.874 -1395.6)" fill="#ffb27d"></path>
                        </g>
                    </g>
                    <g id="Group_70" data-name="Group 70" transform="translate(94.139 98.122)">
                        <path id="Path_77" data-name="Path 77"
                            d="M916.48,1525.111h50.4c2.078,0,3.678-3.177,3.7-5.425.082-7.062-7.5-18.343-24.673-13.348,0,0-4.848-13.083-21.88-11.5-10,.932-15.574,11.135-16.245,20.231C907.386,1520.5,911.446,1525.111,916.48,1525.111Z"
                            transform="translate(-907.759 -1494.708)" fill="#77bac0"></path>
                    </g>
                    <g id="Group_73" data-name="Group 73" transform="translate(113.438 111.002)">
                        <g id="Group_71" data-name="Group 71" transform="translate(7.233 6.859)">
                            <rect id="Rectangle_2" data-name="Rectangle 2" width="9.762" height="22.425"
                                transform="translate(9.762 22.425) rotate(180)" fill="#e6f0ff"></rect>
                        </g>
                        <g id="Group_72" data-name="Group 72">
                            <path id="Path_78" data-name="Path 78" d="M1009.858,1558.063H985.629l12.114-11.387Z"
                                transform="translate(-985.629 -1546.676)" fill="#e6f0ff"></path>
                        </g>
                    </g>
                </g>
                <g id="Group_77" data-name="Group 77" transform="translate(616.962 433.458)">
                    <g id="Group_75" data-name="Group 75" transform="translate(0)">
                        <path id="Path_79" data-name="Path 79"
                            d="M1882.411,1133.425l-12.737,2.926-6.327,11.436-4.732-26.116Z"
                            transform="translate(-1858.615 -1121.671)" fill="#233862"></path>
                    </g>
                    <g id="Group_76" data-name="Group 76" transform="translate(8.513 12.164)">
                        <rect id="Rectangle_3" data-name="Rectangle 3" width="2.327" height="13.462"
                            transform="matrix(0.799, -0.602, 0.602, 0.799, 0, 1.4)" fill="#233862"></rect>
                    </g>
                </g>
                <g id="Group_103" data-name="Group 103" transform="translate(403.255 262.42)">
                    <g id="Group_98" data-name="Group 98" transform="translate(0 0)">
                        <g id="Group_78" data-name="Group 78" transform="translate(38.162 103.624)">
                            <path id="Path_80" data-name="Path 80"
                                d="M1152.577,864.552a1.488,1.488,0,0,0-.265,1.592.012.012,0,0,0,0,.008,9.9,9.9,0,0,0,3.126,3.43c.188.152.356.29.5.418.038.033.077.067.113.1l.087.078c1.374,1.267.857,1.557,3.326,4.127,2.815,2.929,4.753,2.982,5.3,2.715.466-.227-.481-1.781-1.531-3.527-.051-.084-.1-.169-.153-.255-.14-.232-.279-.468-.418-.7-1.23-2.1-.914-3.087-.623-6.215.237-2.541,3.953-14.2,3.953-14.2l-5.394-.929s-1.625,9.281-3.415,10.711c-.957.762-2.028.771-2.948,1.336q-.1.059-.192.121A7.091,7.091,0,0,0,1152.577,864.552Z"
                                transform="translate(-1152.194 -851.198)" fill="#ffb27d"></path>
                        </g>
                        <g id="Group_79" data-name="Group 79" transform="translate(38.162 115.791)">
                            <path id="Path_81" data-name="Path 81"
                                d="M1152.577,901.481a1.488,1.488,0,0,0-.265,1.592.012.012,0,0,0,0,.008,11.456,11.456,0,0,0,3.131,3.419c.186.154.35.3.5.429.038.034.077.067.113.1l.087.078c1.374,1.267.857,1.557,3.326,4.127,2.815,2.929,4.753,2.982,5.3,2.715.466-.228-.481-1.781-1.531-3.527a12,12,0,0,1-5.018-3.7c-1.633-2.085-2.743-4.741-3.854-6.372l-.317-.06A7.088,7.088,0,0,0,1152.577,901.481Z"
                                transform="translate(-1152.194 -900.295)" fill="#233862"></path>
                        </g>
                        <g id="Group_80" data-name="Group 80" transform="translate(77.73 101.982)">
                            <path id="Path_82" data-name="Path 82"
                                d="M1316.162,856.2c.333,1.665,2.707,1.387,5.359.74s2.022.122,5.8-.3,4.917-1.825,5.032-2.386c.1-.5-1.762-.674-3.762-.9-.251-.028-.5-.059-.757-.09-2.258-.283-3.912-1.741-5.964-2.937-1.943-1.134-4.843-5.753-4.843-5.753l-5.176.41s2.716,4.125,3.766,5.919a6.255,6.255,0,0,1,.508,3.527A6.64,6.64,0,0,0,1316.162,856.2Z"
                                transform="translate(-1311.848 -844.573)" fill="#ffb27d"></path>
                        </g>
                        <g id="Group_81" data-name="Group 81" transform="translate(81.965 110.762)">
                            <path id="Path_83" data-name="Path 83"
                                d="M1334.375,883.588c2.652-.648,2.022.122,5.8-.3s4.917-1.825,5.032-2.386c.1-.5-1.762-.674-3.762-.9l-.019.038a10.638,10.638,0,0,1-5.4,1.68c-2.56.063-5.273-.671-7.041-.643a6.65,6.65,0,0,0,.04,1.771C1329.35,884.514,1331.724,884.236,1334.375,883.588Z"
                                transform="translate(-1328.938 -880.002)" fill="#233862"></path>
                        </g>
                        <g id="Group_82" data-name="Group 82" transform="translate(44.452 72.216)">
                            <path id="Path_84" data-name="Path 84"
                                d="M1195.329,732.764l-4.839,13.02-6.317,17a10.229,10.229,0,0,1-3.356-.307,14.546,14.546,0,0,1-3.246-1.58s1.754-18.254,5.026-28.732a18.662,18.662,0,0,1,2.815-6.089C1190.486,720.081,1195.329,732.764,1195.329,732.764Z"
                                transform="translate(-1177.572 -724.467)" fill="#163560"></path>
                        </g>
                        <g id="Group_83" data-name="Group 83" transform="translate(10.488 57.235)">
                            <path id="Path_85" data-name="Path 85"
                                d="M1087.331,666.621c-2.754-.888-9.941-.014-17.735,1.4a5.287,5.287,0,0,1-5.459-2.465h0l-19.617-1.532s-6.473,14.355-2.929,23.5a3.442,3.442,0,0,0,3.428,2.212h0s11.854.016,15.645.016c9.755,0,20.646-6.706,22.055-6.988,2.306-.461,3.229,4.151,5.535,8.993s21.676,21.446,21.676,21.446a17.06,17.06,0,0,0,4.207-.431,4.142,4.142,0,0,0,1.806-1.141S1094.479,668.927,1087.331,666.621Z"
                                transform="translate(-1040.53 -664.021)" fill="#2f539b"></path>
                        </g>
                        <g id="Group_84" data-name="Group 84" transform="translate(0.072)">
                            <path id="Path_86" data-name="Path 86"
                                d="M1030.438,434.24a6.96,6.96,0,0,0-3.747-.975,10.4,10.4,0,0,1-1.809-.11c-7.487-1.1-12,9.777-12.26,13.063-.485,6.033-3.676,6.952-8.168,10.731-9.007,7.576-6.366,16.378-1.441,19.649,2.955,1.963,8.164,0,8.164,0,.074.052,14.245-7.922,21.23-11.768C1042.88,463.341,1034.646,436.744,1030.438,434.24Z"
                                transform="translate(-998.5 -433.077)" fill="#233862"></path>
                        </g>
                        <g id="Group_85" data-name="Group 85" transform="translate(18.567 17.494)">
                            <path id="Path_87" data-name="Path 87"
                                d="M1082.685,514.651c.031.02-3.437,1.2-5.756.177-2.181-.964-3.834-4.553-3.8-4.555.992-.046,2.082-.913,2.921-6.606l.423.151,7.1,2.556s-.515,2.28-.848,4.45C1082.447,512.647,1082.3,514.393,1082.685,514.651Z"
                                transform="translate(-1073.127 -503.667)" fill="#ffb27d"></path>
                        </g>
                        <g id="Group_86" data-name="Group 86" transform="translate(21.911 17.646)">
                            <path id="Path_88" data-name="Path 88"
                                d="M1093.724,506.834s-.283,1.23-.7,3.528a8.022,8.022,0,0,1-6.407-6.084Z"
                                transform="translate(-1086.619 -504.278)" fill="#ed975d"></path>
                        </g>
                        <g id="Group_87" data-name="Group 87" transform="translate(21.199 5.367)">
                            <path id="Path_89" data-name="Path 89"
                                d="M1092.622,471.83s-9.72-1.3-8.815-7.345.261-10.278,6.505-9.7,7.1,3.063,7.29,5.153S1095.174,472.014,1092.622,471.83Z"
                                transform="translate(-1083.748 -454.732)" fill="#ffb27d"></path>
                        </g>
                        <g id="Group_88" data-name="Group 88" transform="translate(18.41 4.833)">
                            <path id="Path_90" data-name="Path 90"
                                d="M1088.784,455.006s-6.223,5.362-10.455,5.795-5.835-.926-5.835-.926a16.525,16.525,0,0,0,4-5.414,2.978,2.978,0,0,1,2.454-1.755C1081.966,452.445,1087.7,452.326,1088.784,455.006Z"
                                transform="translate(-1072.494 -452.577)" fill="#233862"></path>
                        </g>
                        <g id="Group_89" data-name="Group 89" transform="translate(30.81 5.618)">
                            <path id="Path_91" data-name="Path 91"
                                d="M1122.528,456.909a15.323,15.323,0,0,1,2.737,3.506,11.762,11.762,0,0,1,.318,6.255s3.243-6.307,1.407-9.371C1125.044,454.049,1122.528,456.909,1122.528,456.909Z"
                                transform="translate(-1122.528 -455.746)" fill="#233862"></path>
                        </g>
                        <g id="Group_90" data-name="Group 90" transform="translate(10.225 23.871)">
                            <path id="Path_92" data-name="Path 92"
                                d="M1065.552,548.323c-.294,19.676-.08,15.565-2.233,17.432-.519.45-1.977.717-3.9.844-6.033.4-16.639-.594-17.042-1.708-1.392-3.858-.409-5.057-1.57-10.963-.121-.628-.271-1.308-.447-2.049-.968-4.057-1.91-5.437,1.524-11.954,3.115-5.9,6.35-10.7,6.641-10.522,8.217,4.878,8.88.778,8.88.778S1065.7,538.725,1065.552,548.323Z"
                                transform="translate(-1039.468 -529.397)" fill="#f99746"></path>
                        </g>
                        <g id="Group_91" data-name="Group 91" transform="translate(44.452 79.915)">
                            <path id="Path_93" data-name="Path 93"
                                d="M1190.49,769.15l-6.317,17a10.23,10.23,0,0,1-3.356-.307,14.544,14.544,0,0,1-3.246-1.58s1.754-18.254,5.026-28.732Z"
                                transform="translate(-1177.572 -755.532)" fill="#2f539b"></path>
                        </g>
                        <g id="Group_92" data-name="Group 92" transform="translate(28.167 24.652)">
                            <path id="Path_94" data-name="Path 94"
                                d="M1111.865,532.549s8.456,1.433,9.448,5.074,4.261,25.738,4.261,25.738-2.384,2.329-4.37.343-6.249-20.675-6.249-20.675Z"
                                transform="translate(-1111.865 -532.549)" fill="#f99746"></path>
                        </g>
                        <g id="Group_93" data-name="Group 93" transform="translate(11.568 40.207)">
                            <path id="Path_95" data-name="Path 95"
                                d="M1063.5,616.177c-6.033.4-16.639-.594-17.043-1.709-1.392-3.858-.409-5.057-1.57-10.963l2.91-8.195s-.481,9.125,2.21,11.525,11.018,4.633,12.326,6.638A7.34,7.34,0,0,1,1063.5,616.177Z"
                                transform="translate(-1044.887 -595.311)" fill="#ed7d2b"></path>
                        </g>
                        <g id="Group_94" data-name="Group 94" transform="translate(23.268 56.314)">
                            <path id="Path_96" data-name="Path 96"
                                d="M1092.1,661.224s5.952-1.325,6.913-.8a13.98,13.98,0,0,1,3.6,3.121c.294.669-2.138-.508-2.93-.72a7.039,7.039,0,0,0-2.528.554,8.4,8.4,0,0,1-4.531.454Z"
                                transform="translate(-1092.097 -660.302)" fill="#ffb27d"></path>
                        </g>
                        <g id="Group_95" data-name="Group 95" transform="translate(0 23.871)">
                            <path id="Path_97" data-name="Path 97"
                                d="M1017.491,529.4s-7.992.492-10.759,4.351c-3.895,5.432-11.621,28.583-7.193,31.67,4.987,3.477,22.7.91,22.7.91s.589-2.755-.231-4.087-14.144-3.485-14.759-4.1,7.687-11.992,7.687-13.836S1017.491,529.4,1017.491,529.4Z"
                                transform="translate(-998.209 -529.398)" fill="#f99746"></path>
                        </g>
                        <g id="Group_96" data-name="Group 96" transform="translate(30.469 58.095)">
                            <path id="Path_98" data-name="Path 98"
                                d="M1121.153,667.489a11.506,11.506,0,0,0,1.656,1.8,1.222,1.222,0,0,0,.673.144l-.84-1.513Z"
                                transform="translate(-1121.153 -667.489)" fill="#ffb27d"></path>
                        </g>
                        <g id="Group_97" data-name="Group 97" transform="translate(30.181 56.438)">
                            <path id="Path_99" data-name="Path 99"
                                d="M1119.99,660.8l3.626,1.761a.646.646,0,0,1-.6.232,8.659,8.659,0,0,1-1.573-.432Z"
                                transform="translate(-1119.99 -660.804)" fill="#ffb27d"></path>
                        </g>
                    </g>
                    <g id="Group_102" data-name="Group 102" transform="translate(23.268 39.957)">
                        <g id="Group_99" data-name="Group 99" transform="translate(0 20.621)">
                            <path id="Path_100" data-name="Path 100" d="M1129.974,677.507H1092.1v.836h37.541Z"
                                transform="translate(-1092.097 -677.507)" fill="#233862"></path>
                        </g>
                        <g id="Group_100" data-name="Group 100" transform="translate(8.857)">
                            <path id="Path_101" data-name="Path 101" d="M1127.835,615.759h28.683l8.629-21.457h-28.64Z"
                                transform="translate(-1127.835 -594.302)" fill="#233862"></path>
                        </g>
                        <g id="Group_101" data-name="Group 101" transform="translate(27.513 9.363)">
                            <path id="Path_102" data-name="Path 102"
                                d="M1205.9,633.447a.994.994,0,0,0-.974-1.366,1.957,1.957,0,0,0-1.757,1.366.994.994,0,0,0,.974,1.366A1.957,1.957,0,0,0,1205.9,633.447Z"
                                transform="translate(-1203.112 -632.081)" fill="#fff"></path>
                        </g>
                    </g>
                </g>
                <g id="Group_118" data-name="Group 118" transform="translate(672.038 379.134)">
                    <g id="Group_104" data-name="Group 104" transform="translate(35.674 32.731)">
                        <path id="Path_103" data-name="Path 103"
                            d="M2344.759,1033.26s13.9,14.141,14.611,20.012-7.207,15.036-7.207,15.036Z"
                            transform="translate(-2344.759 -1033.26)" fill="#ed7d2b"></path>
                    </g>
                    <g id="Group_105" data-name="Group 105" transform="translate(7.387 190.256)">
                        <path id="Path_104" data-name="Path 104"
                            d="M2250.964,1671.546s-.531,8.274-2.132,8.389c-.213.015-8.12,0-8.12,0l-10.094-.08a3.275,3.275,0,0,1,3.023-2.94c2.952-.507,7.894-2.571,9.69-6.466C2245.221,1666.348,2250.964,1671.546,2250.964,1671.546Z"
                            transform="translate(-2230.619 -1668.872)" fill="#0e2644"></path>
                    </g>
                    <g id="Group_106" data-name="Group 106" transform="translate(29.868 190.304)">
                        <path id="Path_105" data-name="Path 105"
                            d="M2341.677,1671.743s-.531,8.274-2.132,8.389c-.213.016-8.12,0-8.12,0l-10.094-.08a3.275,3.275,0,0,1,3.023-2.94c2.952-.508,7.895-2.571,9.69-6.466C2335.934,1666.545,2341.677,1671.743,2341.677,1671.743Z"
                            transform="translate(-2321.332 -1669.069)" fill="#0e2644"></path>
                    </g>
                    <g id="Group_107" data-name="Group 107" transform="translate(16.747 91.383)">
                        <path id="Path_106" data-name="Path 106"
                            d="M2268.388,1282.511s2.6,16.889,12.386,46.882,11.1,42.974,11.1,42.974l10.565-.274s.161-32.755-4.344-47.836-.862-54.336-.862-54.336Z"
                            transform="translate(-2268.388 -1269.921)" fill="#163560"></path>
                    </g>
                    <g id="Group_108" data-name="Group 108" transform="translate(11.62 92.234)">
                        <path id="Path_107" data-name="Path 107"
                            d="M2247.711,1273.355a409.84,409.84,0,0,0,3.9,56.691c4.334,31.249,2.813,44.506,2.813,44.506l10.543.373s6.368-31.237,4.6-46.877,8.744-53.635,8.744-53.635Z"
                            transform="translate(-2247.7 -1273.355)" fill="#1c468a"></path>
                    </g>
                    <g id="Group_109" data-name="Group 109" transform="translate(18.43 20.158)">
                        <path id="Path_108" data-name="Path 108"
                            d="M2288.921,995.109l-5.625,3.671-8.115-1.53c.114-.655.656-3.37,1.149-5.829.03-.145.06-.29.088-.432.422-2.092.788-3.89.788-3.89l7.59-3.329,2.829-1.241c-.008.044-.224,2.323-.255,2.656A19.332,19.332,0,0,0,2288.921,995.109Z"
                            transform="translate(-2275.181 -982.528)" fill="#ffb27d"></path>
                    </g>
                    <g id="Group_110" data-name="Group 110" transform="translate(17.263 28.289)">
                        <path id="Path_109" data-name="Path 109"
                            d="M2273.724,1017.906c.158-.066,9.783-2.883,10.827-2.536s1.658,2.37,1.658,2.37l-15.741,3.523A7.814,7.814,0,0,1,2273.724,1017.906Z"
                            transform="translate(-2270.469 -1015.34)" fill="#ed7d2b"></path>
                    </g>
                    <g id="Group_111" data-name="Group 111" transform="translate(9.819 30.605)">
                        <path id="Path_110" data-name="Path 110"
                            d="M2276.894,1089.527c-1.647,7.434-28.783,8.257-35.763,1.491-.794-.771-.825-4.352-.515-9.178.607-9.431,2.523-23.614,2.612-30.863a57.41,57.41,0,0,1,1.18-10.329,83.855,83.855,0,0,1,3.469-12.359s13.262-4.256,15.74-3.522C2275.557,1028.3,2278.54,1082.093,2276.894,1089.527Z"
                            transform="translate(-2240.433 -1024.682)" fill="#f99746"></path>
                    </g>
                    <g id="Group_112" data-name="Group 112" transform="translate(10.002 45.181)">
                        <path id="Path_111" data-name="Path 111"
                            d="M2241.172,1126.078c.607-9.431,2.523-23.615,2.612-30.863a57.362,57.362,0,0,1,1.18-10.329l7.976-1.39S2261.732,1117.284,2241.172,1126.078Z"
                            transform="translate(-2241.172 -1083.496)" fill="#ed7d2b"></path>
                    </g>
                    <g id="Group_113" data-name="Group 113" transform="translate(12.066 73.389)">
                        <path id="Path_112" data-name="Path 112"
                            d="M2251.782,1198.552a1.876,1.876,0,0,1-.6,2.17,3.637,3.637,0,0,0-1.627,3.314c.259,1.033,2.759,2.723,3.627,2.453s2.637-1.626,2.449-2.171,1.2-4.777-.914-6.412S2251.782,1198.552,2251.782,1198.552Z"
                            transform="translate(-2249.501 -1197.316)" fill="#ffb27d"></path>
                    </g>
                    <g id="Group_114" data-name="Group 114" transform="translate(0 32.758)">
                        <path id="Path_113" data-name="Path 113"
                            d="M2223.952,1033.369s-7.562,1-13.777,10.114-10.306,15.9-9.172,19.189,11.512,14.728,13.306,14.732,4.69-1.294,4.86-4.228c0,0-6.575-11.674-5.129-13.315.618-.7,8.8-7.22,10.064-3.956C2226.192,1061.3,2223.952,1033.369,2223.952,1033.369Z"
                            transform="translate(-2200.814 -1033.369)" fill="#f99746"></path>
                    </g>
                    <g id="Group_115" data-name="Group 115" transform="translate(19.579 21.398)">
                        <path id="Path_114" data-name="Path 114"
                            d="M2290.287,989.051c-1.671,2.817-7.881,5.243-10.471,6.134.03-.145.06-.29.088-.432.423-2.093.788-3.89.788-3.89l7.59-3.329C2289.957,987.515,2290.976,987.892,2290.287,989.051Z"
                            transform="translate(-2279.816 -987.533)" fill="#fca56b"></path>
                    </g>
                    <g id="Group_116" data-name="Group 116" transform="translate(16.081 4.172)">
                        <path id="Path_115" data-name="Path 115"
                            d="M2267.217,938.114s12.205,3.837,14.478-3.8,5.378-12.287-2.319-15.059-10.085-.31-11.463,2.054S2264.1,936.919,2267.217,938.114Z"
                            transform="translate(-2265.701 -918.025)" fill="#ffb27d"></path>
                    </g>
                    <g id="Group_117" data-name="Group 117" transform="translate(17.632)">
                        <path id="Path_116" data-name="Path 116"
                            d="M2273.1,907.911s.76,8.9,2.6,8.513,3.509-.664,3.233,2.016-2.832,5.77,2.835,6.257,13.848-14.114,12.3-16.885C2289.59,899.816,2266.628,898.155,2273.1,907.911Z"
                            transform="translate(-2271.959 -901.192)" fill="#163560"></path>
                    </g>
                </g>
                <g id="Group_119" data-name="Group 119" transform="translate(206.479 580.096)">
                    <rect id="Rectangle_4" data-name="Rectangle 4" width="660" height="1.808" rx="0.904"
                        transform="translate(0 0)" fill="#2e3552"></rect>
                </g>
            </g>
        </svg>