<svg width="115" height="38" viewBox="0 0 115 38" fill="none" xmlns="http://www.w3.org/2000/svg">
<path d="M10.3036 30.3852C10.6061 30.0175 18.6579 21.2131 19.9295 14.1049C20.0719 13.3065 19.9096 12.6914 19.488 12.3701C18.8544 11.8875 17.903 11.6247 15.6359 11.6247C13.9593 11.6247 12.159 11.6258 11.3886 11.6258C11.318 11.6114 11.0597 11.5286 11.0498 11.2205L11.0387 6.32639C11.0387 6.01719 11.2882 5.76652 11.5972 5.76652C11.9063 5.76652 12.1568 6.01609 12.1579 6.32418C12.1579 6.32418 12.1657 8.98106 12.1657 9.92522C12.1657 10.0169 12.2186 10.2289 12.4262 10.2852C13.7805 10.6452 20.6237 10.3813 20.5178 9.14008C20.5167 9.13566 20.5167 9.13125 20.5156 9.12683C19.9372 3.99195 15.5818 0 10.2926 0C8.62702 0 7.05086 0.396435 5.65461 1.09875C2.31244 2.817 -0.0606305 6.28443 0.00117982 10.2885C0.0442263 13.1276 1.9173 18.173 3.06189 18.9206C3.59059 19.2663 4.28596 19.1382 7.39634 19.1382C8.80694 19.1382 10.1193 19.1437 10.7661 19.1459C10.8323 19.1581 11.1844 19.2398 11.1844 19.5622H11.1855L11.1922 23.2825C11.1922 23.5917 10.9427 23.8424 10.6348 23.8424C10.3257 23.8424 10.0752 23.5928 10.074 23.2847C10.074 23.2847 10.1027 21.7918 10.1027 21.2352C10.1027 21.106 10.1116 20.884 9.7363 20.7173C8.49678 20.1663 4.4747 20.4998 4.24953 21.1071C4.16344 21.3412 4.61267 22.2445 5.30472 23.404C7.61157 27.0426 9.87648 29.8784 10.2429 30.3322C10.2661 30.3521 10.2871 30.3698 10.3069 30.3841" fill="white"/>
<path d="M30.7211 13.7512L30.1207 13.4939C29.0754 13.0412 28.8359 12.8225 28.8359 12.3267C28.8359 11.8949 29.1615 11.6167 29.666 11.6167C30.1704 11.6167 30.5302 11.7613 30.9331 12.4835L31.0997 12.7806L33.5136 11.2291L33.3635 10.964C32.5556 9.54062 31.3812 8.87695 29.666 8.87695C27.4033 8.87695 25.8227 10.3158 25.8227 12.3775C25.8227 14.6722 27.3039 15.6185 28.9033 16.301L29.5026 16.5583C30.6825 17.074 31.0633 17.2893 31.0633 17.8624C31.0633 18.3803 30.5357 18.7282 29.7509 18.7282C28.8414 18.7282 28.2134 18.3373 27.6527 17.4196L27.4893 17.1524L24.9971 18.5957L25.1339 18.8662C25.9816 20.5403 27.6825 21.501 29.8028 21.501C32.4187 21.501 34.1086 20.0588 34.1086 17.8282C34.1086 15.5976 32.8128 14.6479 30.7189 13.7512" fill="white"/>
<path d="M48.2826 13.9267C48.17 14.2392 48.053 14.6202 47.9503 14.9758C47.83 14.6114 47.6843 14.216 47.5331 13.898L45.1623 8.91992H44.5155L42.1788 13.898C42.0265 14.216 41.8808 14.6102 41.7605 14.9758C41.6589 14.6213 41.5419 14.2403 41.4294 13.9267L39.6501 9.02151H36.4238L40.9713 21.4568H41.6369L44.4581 15.6339C44.585 15.3667 44.7185 15.0343 44.8322 14.7306C44.9437 15.0354 45.074 15.3656 45.2009 15.6328L47.9161 21.4568H48.5861L53.0618 9.02151H50.042L48.2826 13.9267Z" fill="white"/>
<path d="M59.7096 9.02148H56.6621V21.354H59.7096V9.02148Z" fill="white"/>
<path d="M69.7036 17.2021H72.5215V18.3903C72.0149 18.5868 71.2709 18.7105 70.5557 18.7105C68.4023 18.7105 67.0104 17.3247 67.0104 15.1802C67.0104 13.0357 68.3129 11.684 70.1782 11.684C71.378 11.684 71.9784 12.054 72.559 12.6536L72.7853 12.8855L74.8625 10.8293L74.6639 10.6018C73.6473 9.44124 72.1793 8.87695 70.1782 8.87695C66.5369 8.87695 63.8945 11.5283 63.8945 15.1802C63.8945 18.832 66.6329 21.4999 70.5557 21.4999C72.8813 21.4999 74.5965 20.601 75.2444 20.0688L75.3614 19.9727V14.4458H69.7025V17.2021H69.7036Z" fill="white"/>
<path d="M85.1478 17.2021H87.9657V18.3903C87.4591 18.5868 86.7151 18.7105 86.001 18.7105C83.8465 18.7105 82.4546 17.3247 82.4546 15.1802C82.4546 13.0357 83.7571 11.684 85.6224 11.684C86.8222 11.684 87.4248 12.054 88.0043 12.6536L88.2306 12.8855L90.3079 10.8293L90.1092 10.6018C89.0926 9.44124 87.6257 8.87695 85.6224 8.87695C81.9822 8.87695 79.3398 11.5283 79.3398 15.1802C79.3398 18.832 82.0783 21.4999 86.001 21.4999C88.3266 21.4999 90.0419 20.601 90.6898 20.0688L90.8068 19.9727V14.4458H85.1478V17.2021Z" fill="white"/>
<path d="M101.976 9.02259L99.9108 12.9582C99.6812 13.3922 99.4505 13.9521 99.2761 14.407C99.0918 13.9477 98.8501 13.3823 98.6183 12.9538L96.466 9.02259H93.0664L97.7243 17.404V21.354H100.789V17.2273L105.161 9.02148H101.976V9.02259Z" fill="white"/>
<path d="M77.536 25.84C76.984 28.24 76.432 30.736 75.856 33.856C78.328 30.04 82.6 24.472 84.664 22.288C84.976 21.976 85.24 22 85.408 22.336C85.792 23.056 85.456 24.448 82.816 27.856C80.92 30.28 78.184 34.072 76.024 37.168C75.76 37.552 75.496 37.696 74.992 37.336C74.2 36.736 73.792 36.016 73.792 34.84C73.792 34.6 73.816 34.336 73.84 34.048C74.248 30.4 75.424 24.88 76.288 22.576C76.552 21.952 76.864 21.904 77.248 22.384C77.512 22.72 77.776 23.296 77.776 23.992C77.776 24.496 77.704 25.096 77.536 25.84ZM86.3451 26.416C86.3451 25.744 86.8491 25.12 87.4011 25.12C88.0731 25.12 88.7211 25.984 88.7211 26.68C88.7211 27.328 88.3611 27.88 87.7611 27.88C86.9931 27.88 86.3451 27.16 86.3451 26.416ZM88.1211 34.84C87.4011 36.352 85.7451 37.36 84.3291 37.36C82.8651 37.36 82.2171 36.52 82.2171 35.32C82.2171 34.864 82.3131 34.36 82.5051 33.736C83.1051 32.056 84.6411 29.272 85.5291 28.024C85.8891 27.544 86.1771 27.496 86.4891 27.856C86.9451 28.336 87.1371 29.368 86.5131 30.568C86.0571 31.6 84.9531 33.4 84.5451 34.36C84.3291 34.912 84.2091 35.416 84.2091 35.8C84.2091 36.184 84.3051 36.4 84.5691 36.4C85.5291 36.4 86.7771 34.792 87.5211 33.16C87.7131 32.728 88.0251 32.776 88.2411 33.208C88.4571 33.616 88.4331 34.216 88.1211 34.84ZM94.3949 29.608C94.3949 29.08 94.3229 28.792 94.0589 28.792C93.7709 28.792 93.3149 29.056 92.6669 29.68C91.6589 30.736 90.5789 32.656 89.6909 34.48C89.7389 35.176 90.1469 35.896 90.6269 35.896C91.2989 35.896 92.2349 35.152 93.4349 32.704C94.1309 31.336 94.3949 30.304 94.3949 29.608ZM96.4349 29.872C96.4349 30.832 96.1709 32.08 95.5709 33.376C94.4429 35.872 92.9309 37.264 91.4429 37.264C90.2909 37.264 89.4749 36.784 88.9949 35.992L88.5149 37.048C88.2989 37.504 88.0109 37.576 87.6989 37.168C87.3149 36.64 87.0509 35.992 87.5549 34.456C88.2509 32.344 92.4269 24.52 94.4429 21.544C94.8029 21.016 95.1389 21.016 95.4509 21.568C95.6189 21.856 95.6909 22.192 95.6909 22.576C95.6909 23.224 95.4269 24.16 94.8509 25.192C94.4909 25.84 93.8909 26.752 93.1949 27.976C93.6269 27.736 94.1549 27.544 94.5389 27.544C95.8589 27.544 96.4349 28.504 96.4349 29.872ZM103.378 28.816C103.018 28.528 101.242 29.992 100.09 32.296C100.282 32.416 100.45 32.464 100.618 32.464C101.194 32.464 101.962 31.744 102.442 31.096C103.138 30.16 103.642 29.032 103.378 28.816ZM105.178 29.776C105.178 31.216 103.57 33.736 101.458 33.736C100.882 33.736 100.306 33.568 99.7542 33.208C99.6102 33.688 99.5382 34.192 99.5382 34.624C99.5382 35.68 99.9702 36.424 100.69 36.424C102.514 36.424 104.122 34.648 105.106 33.16C105.37 32.776 105.682 32.728 105.874 33.208C105.946 33.424 105.97 34.12 105.538 34.768C104.53 36.232 102.61 37.36 100.738 37.384C98.5062 37.408 97.2822 35.944 97.2822 34.024C97.2822 33.16 97.5222 32.224 98.0262 31.264C99.2742 28.72 101.218 27.448 102.61 27.448C102.946 27.448 103.21 27.496 103.45 27.64C104.122 28.024 104.602 28.408 104.938 28.888C105.082 29.104 105.178 29.464 105.178 29.776ZM108.453 36.256C108.957 36.256 109.173 35.056 109.173 33.496C109.173 32.728 109.149 31.96 109.101 31.312C108.525 32.224 107.853 33.256 107.133 34.288C107.421 35.416 107.925 36.256 108.453 36.256ZM105.165 33.952C105.165 33.232 105.405 32.536 105.933 32.08C106.413 31.672 106.773 31.792 106.845 32.368C107.637 31.24 108.477 29.992 109.101 28.96C109.197 28.096 109.485 27.544 110.037 27.088C110.421 26.752 110.853 26.584 111.213 26.584C111.861 26.584 112.005 27.112 111.261 28.336C111.237 28.624 111.213 29.032 111.213 29.344C111.213 31.048 111.525 32.608 111.477 33.904C111.453 34.504 111.333 35.176 111.069 35.704C112.053 35.032 112.725 34.24 113.157 33.064C113.373 32.512 113.733 32.68 113.901 33.064C114.021 33.304 114.093 33.976 113.661 34.72C112.749 36.4 111.069 37.312 109.269 37.384C107.829 37.432 106.389 37.048 105.573 35.536C105.309 35.08 105.165 34.504 105.165 33.952Z" fill="white"/>
</svg>
